<?xml version="1.0" encoding="utf-8"?>
<!-- Generator: Adobe Illustrator 19.1.0, SVG Export Plug-In . SVG Version: 6.00 Build 0)  -->
<svg version="1.1" id="Layer_1" xmlns="http://www.w3.org/2000/svg" xmlns:xlink="http://www.w3.org/1999/xlink" x="0px" y="0px"
	 viewBox="0 0 84.5 62" enable-background="new 0 0 84.5 62" xml:space="preserve">
<g>
	<path fill="#333333" stroke="#FFFFFF" stroke-miterlimit="10" d="M35.7,60.2h-31c-1.6,0-2.9-1.3-2.9-2.9V4.7c0-1.6,1.3-2.9,2.9-2.9
		h31c1.6,0,2.9,1.3,2.9,2.9v52.7C38.6,58.9,37.3,60.2,35.7,60.2z"/>
	<circle fill="#333333" stroke="#FFFFFF" stroke-miterlimit="10" cx="20" cy="55.3" r="3.1"/>
	<rect x="4.1" y="7" fill="#333333" stroke="#FFFFFF" stroke-miterlimit="10" width="32.2" height="43.3"/>
	<path fill="#333333" stroke="#FFFFFF" stroke-miterlimit="10" d="M23.5,5.2H17c-0.5,0-0.9-0.4-0.9-0.9v0c0-0.5,0.4-0.9,0.9-0.9h6.5
		c0.5,0,0.9,0.4,0.9,0.9v0C24.4,4.8,24,5.2,23.5,5.2z"/>
	<path fill="#333333" stroke="#FFFFFF" stroke-miterlimit="10" d="M79.8,60.2H55.9c-1.6,0-2.9-1.3-2.9-2.9V9.9C53,8.3,54.3,7,55.9,7
		h23.9c1.6,0,2.9,1.3,2.9,2.9v47.4C82.6,58.9,81.4,60.2,79.8,60.2z"/>
	<circle fill="#333333" stroke="#FFFFFF" stroke-miterlimit="10" cx="68" cy="56.7" r="2.2"/>
	<rect x="54.6" y="14.1" fill="#333333" stroke="#FFFFFF" stroke-miterlimit="10" width="26.3" height="39"/>
	<path fill="#333333" stroke="#FFFFFF" stroke-miterlimit="10" d="M70.6,11.3h-4.7c-0.4,0-0.7-0.3-0.7-0.7v0c0-0.4,0.3-0.7,0.7-0.7
		h4.7c0.4,0,0.7,0.3,0.7,0.7v0C71.2,11.1,70.9,11.3,70.6,11.3z"/>
</g>
</svg>
